HIERARCHY
ROOT Hips
{
	OFFSET -13.091600 -28.302996 44.698402
	CHANNELS 6 Xposition Yposition Zposition Zrotation Xrotation Yrotation
	JOINT Chest
	{
		OFFSET -0.673000 0.623899 5.369202
		CHANNELS 6 Xposition Yposition Zposition Zrotation Xrotation Yrotation
		JOINT Chest2
		{
			OFFSET 0.000000 0.000000 4.415001
			CHANNELS 6 Xposition Yposition Zposition Zrotation Xrotation Yrotation
			JOINT Neck
			{
				OFFSET 0.000000 0.000002 10.273300
				CHANNELS 6 Xposition Yposition Zposition Zrotation Xrotation Yrotation
				JOINT Head
				{
					OFFSET 0.000000 0.000000 2.173897
					CHANNELS 6 Xposition Yposition Zposition Zrotation Xrotation Yrotation
					End Site
					{
						OFFSET 0.000000 0.000000 9.961800
					}
				}
			}
			JOINT LeftCollar
			{
				OFFSET 2.359900 -0.565201 5.928101
				CHANNELS 6 Xposition Yposition Zposition Zrotation Xrotation Yrotation
				JOINT LeftShoulder
				{
					OFFSET 5.443700 0.000000 0.000000
					CHANNELS 6 Xposition Yposition Zposition Zrotation Xrotation Yrotation
					JOINT LeftElbow
					{
						OFFSET 0.000000 0.000000 -10.615799
						CHANNELS 6 Xposition Yposition Zposition Zrotation Xrotation Yrotation
						JOINT LeftWrist
						{
							OFFSET 0.000000 -0.000002 -13.110302
							CHANNELS 6 Xposition Yposition Zposition Zrotation Xrotation Yrotation
							End Site
							{
								OFFSET 0.000000 0.000000 -2.173901
							}
						}
					}
				}
			}
			JOINT RightCollar
			{
				OFFSET -2.636600 -1.718800 6.889698
				CHANNELS 6 Xposition Yposition Zposition Zrotation Xrotation Yrotation
				JOINT RightShoulder
				{
					OFFSET -4.139101 0.000000 0.000000
					CHANNELS 6 Xposition Yposition Zposition Zrotation Xrotation Yrotation
					JOINT RightElbow
					{
						OFFSET 0.000000 0.000000 -10.471802
						CHANNELS 6 Xposition Yposition Zposition Zrotation Xrotation Yrotation
						JOINT RightWrist
						{
							OFFSET 0.000000 0.000000 -12.281898
							CHANNELS 6 Xposition Yposition Zposition Zrotation Xrotation Yrotation
							End Site
							{
								OFFSET 0.000000 -0.000002 -2.173901
							}
						}
					}
				}
			}
		}
	}
	JOINT LeftHip
	{
		OFFSET 2.273400 0.176701 -2.518002
		CHANNELS 6 Xposition Yposition Zposition Zrotation Xrotation Yrotation
		JOINT LeftKnee
		{
			OFFSET 0.000000 -0.000002 -20.456402
			CHANNELS 6 Xposition Yposition Zposition Zrotation Xrotation Yrotation
			JOINT LeftAnkle
			{
				OFFSET 0.000000 -0.000002 -16.635300
				CHANNELS 6 Xposition Yposition Zposition Zrotation Xrotation Yrotation
				End Site
				{
					OFFSET 0.000000 -8.812399 0.000001
				}
			}
		}
	}
	JOINT RightHip
	{
		OFFSET -1.914800 0.018101 -2.699299
		CHANNELS 6 Xposition Yposition Zposition Zrotation Xrotation Yrotation
		JOINT RightKnee
		{
			OFFSET 0.000000 -0.000002 -20.148901
			CHANNELS 6 Xposition Yposition Zposition Zrotation Xrotation Yrotation
			JOINT RightAnkle
			{
				OFFSET 0.000000 -0.000002 -16.838301
				CHANNELS 6 Xposition Yposition Zposition Zrotation Xrotation Yrotation
				End Site
				{
					OFFSET 0.000000 -8.328398 0.000001
				}
			}
		}
	}
}
MOTION
Frames: 7
Frame Time: 0.041667
-15.282598 -18.725300 22.256105 360.836954 37.637764 -5.475245 -0.672998 0.623896 5.369207 -3.456988 20.530007 15.883730 -0.000001 0.000005 4.415005 2.816515 -5.892895 -0.230878 -0.000001 -0.000003 10.273304 -5.607993 21.506970 19.314382 0.000002 -0.000002 2.173902 -0.318046 -3.558760 -4.629816 2.359900 -0.565203 5.928101 -4.013870 9.602540 10.465180 5.443698 0.000002 -0.000006 136.602814 179.072971 -279.967596 -0.000003 -0.000001 -10.615789 168.635991 -184.450611 180.724551 0.000002 -0.000002 -13.110292 -131.823962 -179.840397 193.360142 -2.636596 -1.718805 6.889694 19.104644 26.412792 17.880049 -4.139097 0.000002 0.000005 261.578651 -138.532492 251.715666 0.000002 -0.000003 -10.471802 -9.571343 -11.492157 -7.858327 0.000001 -0.000006 -12.281897 -4.490718 -0.061222 12.158228 2.273399 0.176702 -2.518003 -13.365184 -174.202923 -61.801006 0.000001 -0.000006 -20.456396 20.242930 176.199483 -76.079879 -0.000006 0.000002 -16.635296 39.405612 16.446515 24.715893 -1.914798 0.018105 -2.699303 15.617067 177.912248 53.025842 -0.000002 -0.000005 -20.148903 171.246721 21.589294 -106.035873 -0.000003 -0.000004 -16.838299 -31.586534 27.658895 -16.491241
-15.615699 -18.707697 22.144899 360.596941 37.229759 -5.847537 -0.672996 0.623897 5.369205 -3.444998 20.785724 15.862308 0.000002 0.000001 4.415003 2.160865 -5.961535 -0.292733 -0.000000 -0.000012 10.273303 -4.577162 22.212690 20.054759 0.000000 0.000002 2.173903 -0.139663 -3.698644 -4.257538 2.359901 -0.565208 5.928098 -3.757391 9.036892 10.855272 5.443696 0.000000 0.000004 136.242207 178.621222 -278.583745 -0.000002 -0.000006 -10.615792 166.399049 -184.821217 181.274996 0.000005 -0.000005 -13.110298 -127.571528 -180.258610 191.856230 -2.636598 -1.718811 6.889697 18.051193 25.875975 18.340579 -4.139094 0.000004 0.000008 260.915057 -139.720863 251.180644 -0.000006 -0.000004 -10.471800 -9.629972 -12.773824 -9.209546 -0.000006 -0.000000 -12.281900 -2.869218 -1.788839 10.582595 2.273396 0.176698 -2.518005 -13.198952 -174.380440 -62.369237 0.000003 -0.000002 -20.456394 19.653302 176.516499 -76.429393 -0.000004 -0.000004 -16.635298 39.450937 16.644437 24.669081 -1.914799 0.018104 -2.699302 15.820902 178.322142 52.064111 0.000003 -0.000000 -20.148903 171.373654 21.079222 -106.769702 -0.000002 -0.000004 -16.838301 -32.043822 27.565860 -16.549663
-15.924500 -18.688499 22.039602 360.330974 36.834319 -6.203094 -0.673002 0.623895 5.369214 -3.406772 21.031548 15.770466 -0.000001 -0.000001 4.415001 1.594167 -6.026505 -0.345149 -0.000004 -0.000001 10.273306 -3.554739 23.018359 20.575709 0.000001 -0.000001 2.173901 -0.052086 -3.799955 -3.841908 2.359900 -0.565197 5.928098 -3.565364 8.490338 11.220951 5.443699 0.000003 -0.000012 135.714602 178.096199 -277.114435 -0.000004 -0.000003 -10.615795 164.327945 -185.084357 181.894126 0.000005 -0.000004 -13.110302 -123.732224 -180.638942 189.918806 -2.636599 -1.718804 6.889689 17.176218 24.546243 19.299589 -4.139095 0.000004 0.000001 259.541478 -140.441585 249.533831 0.000002 -0.000003 -10.471797 -9.711436 -13.865987 -10.378434 0.000001 -0.000003 -12.281899 -1.681569 -3.339536 9.050748 2.273392 0.176698 -2.518003 -13.030258 -174.498834 -62.916083 0.000002 -0.000004 -20.456396 19.128933 176.770992 -76.724171 -0.000002 -0.000002 -16.635298 39.515117 16.858942 24.517399 -1.914803 0.018097 -2.699298 16.041369 178.650401 51.164588 0.000005 -0.000003 -20.148899 171.501952 20.518465 -107.444490 0.000007 -0.000002 -16.838299 -32.501141 27.451268 -16.665404
-16.203800 -18.666897 21.944597 360.070607 36.437813 -6.528463 -0.673000 0.623898 5.369206 -3.355437 21.277508 15.574202 0.000005 0.000001 4.415007 1.057181 -6.056003 -0.389535 -0.000001 0.000002 10.273310 -2.684630 23.835193 21.050489 -0.000003 -0.000007 2.173902 0.054101 -3.890582 -3.401197 2.359901 -0.565202 5.928105 -3.352298 7.928293 11.419354 5.443691 0.000004 -0.000003 134.994946 177.509991 -275.440793 -0.000005 0.000002 -10.615797 162.771905 -185.249743 182.511015 0.000001 -0.000005 -13.110298 -120.543946 -180.985915 187.790205 -2.636597 -1.718803 6.889704 16.295844 23.049035 20.330949 -4.139099 0.000003 0.000005 257.656592 -140.369280 247.379753 0.000000 -0.000003 -10.471799 -8.912687 -14.733005 -11.314520 0.000006 -0.000000 -12.281895 -0.798045 -4.797860 7.634425 2.273397 0.176699 -2.518001 -12.877646 -174.485433 -63.415322 0.000003 -0.000005 -20.456396 18.711336 176.932335 -77.003607 -0.000006 -0.000003 -16.635300 39.551628 17.091623 24.370118 -1.914800 0.018102 -2.699301 16.285399 178.844364 50.381808 -0.000001 -0.000004 -20.148899 171.687036 19.871182 -108.042487 -0.000003 -0.000002 -16.838305 -32.964802 27.311638 -16.903076
-16.453197 -18.644398 21.858498 359.541158 35.973251 -6.695152 -0.672999 0.623895 5.369205 -3.095274 21.618210 15.335913 -0.000002 0.000001 4.415009 0.534488 -6.066953 -0.428302 -0.000000 -0.000005 10.273302 -1.928796 24.659580 21.446089 -0.000004 0.000000 2.173903 0.178093 -3.990183 -2.917348 2.359898 -0.565202 5.928106 -3.133103 7.373271 11.170085 5.443693 -0.000000 -0.000006 134.070056 177.017043 -273.358978 -0.000001 -0.000002 -10.615794 161.851701 -185.266381 183.135417 0.000004 -0.000004 -13.110294 -117.885390 -181.311538 185.340871 -2.636597 -1.718807 6.889706 15.492633 21.483349 21.284167 -4.139093 0.000011 -0.000003 256.272195 -141.040920 245.646251 -0.000001 -0.000007 -10.471794 -8.866895 -15.403330 -12.079136 0.000000 -0.000000 -12.281900 0.127492 -5.768392 6.321328 2.273394 0.176697 -2.518003 -12.551559 -174.314952 -63.942681 0.000003 -0.000006 -20.456394 18.353012 177.076998 -77.312503 -0.000001 -0.000001 -16.635298 39.601819 17.353002 24.278353 -1.914799 0.018100 -2.699302 16.718679 179.122872 49.698273 -0.000001 -0.000000 -20.148903 171.861671 19.325612 -108.578281 0.000001 -0.000004 -16.838303 -33.337887 27.195170 -17.161253
-16.674400 -18.621498 21.782703 359.507854 35.701587 -7.166602 -0.673000 0.623901 5.369210 -3.211161 21.726798 15.080446 0.000000 0.000004 4.415007 0.014940 -6.067322 -0.461711 -0.000003 -0.000004 10.273298 -1.213397 25.494379 21.700069 0.000001 -0.000003 2.173895 0.314159 -4.164903 -2.340407 2.359901 -0.565205 5.928096 -2.937671 6.959340 11.675767 5.443694 0.000005 0.000002 132.971571 175.743882 -271.779347 -0.000002 -0.000004 -10.615795 161.653707 -185.301174 183.578273 0.000004 -0.000007 -13.110301 -115.558140 -181.713536 182.723598 -2.636596 -1.718802 6.889696 14.819817 19.982603 22.000825 -4.139093 0.000007 -0.000006 254.339442 -141.206839 243.607986 -0.000007 -0.000002 -10.471798 -7.938187 -16.015323 -12.517578 0.000000 -0.000006 -12.281893 0.480213 -6.765080 5.063779 2.273399 0.176707 -2.518007 -12.630694 -174.324077 -64.451154 0.000003 -0.000006 -20.456394 18.047098 177.206758 -77.638050 -0.000004 -0.000003 -16.635296 39.660327 17.626037 24.229237 -1.914798 0.018103 -2.699306 16.754020 179.231554 48.998227 0.000003 -0.000000 -20.148903 171.991062 18.887194 -109.073647 0.000002 -0.000002 -16.838303 -33.663516 27.073335 -17.462741
-16.866899 -18.597897 21.722504 359.138313 36.084395 -7.418834 -0.673003 0.623896 5.369210 -2.954577 21.257591 14.747917 0.000002 0.000004 4.415009 -0.784238 -6.079521 -0.555329 -0.000004 -0.000002 10.273297 -0.239816 26.325236 21.826472 -0.000002 -0.000002 2.173906 0.450265 -4.370754 -1.709388 2.359898 -0.565199 5.928102 -2.595138 6.713074 11.451253 5.443697 -0.000006 0.000006 131.694421 174.999787 -269.716630 -0.000007 -0.000003 -10.615796 162.018275 -185.359272 183.897489 0.000007 -0.000000 -13.110300 -113.708060 -182.339113 180.143917 -2.636600 -1.718804 6.889699 15.268430 18.049589 22.443132 -4.139097 0.000004 0.000003 251.342082 -141.475716 240.843316 0.000001 -0.000003 -10.471796 -6.784839 -16.361421 -12.775244 0.000004 -0.000006 -12.281902 0.681416 -7.595911 3.994171 2.273397 0.176701 -2.518003 -12.378179 -174.856394 -64.802601 0.000000 -0.000002 -20.456398 17.788336 177.335029 -77.931202 -0.000006 -0.000001 -16.635298 39.797316 17.837543 24.197106 -1.914799 0.018098 -2.699302 17.128422 178.828901 48.205245 0.000001 -0.000005 -20.148903 172.082231 18.572732 -109.520649 -0.000000 -0.000006 -16.838303 -33.936430 26.909057 -17.824663
